<svg width="680" height="440" viewBox="0 0 680 440" role="img" xmlns="http://www.w3.org/2000/svg">
<title>Cimbi — a Label Labor kabalája</title>
<desc>Aranyos kabalafigura: fehér polccímke-test, nagy barátságos szemek, amber pír, hasán vonalkód, fején kék festékcsepp, kék kezekkel integet.</desc>

<ellipse cx="340" cy="400" rx="112" ry="16" fill="#1C1C1C" opacity="0.08"/>

<ellipse cx="306" cy="372" rx="27" ry="16" fill="#1D4ED8"/>
<ellipse cx="374" cy="372" rx="27" ry="16" fill="#1D4ED8"/>

<line x1="252" y1="252" x2="214" y2="278" stroke="#1D4ED8" stroke-width="20" stroke-linecap="round"/>
<circle cx="210" cy="280" r="15" fill="#1D4ED8"/>
<line x1="428" y1="250" x2="470" y2="176" stroke="#1D4ED8" stroke-width="20" stroke-linecap="round"/>
<circle cx="472" cy="172" r="17" fill="#1D4ED8"/>
<ellipse cx="467" cy="166" rx="4" ry="6" fill="#FFFFFF" opacity="0.45"/>

<rect x="248" y="128" width="184" height="240" rx="32" fill="#FFFFFF" stroke="#E2E0DA" stroke-width="3"/>

<path d="M340,84 C350,104 358,116 340,130 C322,116 330,104 340,84 Z" fill="#1D4ED8"/>
<ellipse cx="334" cy="104" rx="4" ry="7" fill="#FFFFFF" opacity="0.5"/>

<circle cx="312" cy="196" r="15" fill="#1C1C1C"/>
<circle cx="368" cy="196" r="15" fill="#1C1C1C"/>
<circle cx="307" cy="191" r="4.5" fill="#FFFFFF"/>
<circle cx="316" cy="200" r="2.2" fill="#FFFFFF"/>
<circle cx="363" cy="191" r="4.5" fill="#FFFFFF"/>
<circle cx="372" cy="200" r="2.2" fill="#FFFFFF"/>

<ellipse cx="288" cy="222" rx="13" ry="8" fill="#D97706" opacity="0.35"/>
<ellipse cx="392" cy="222" rx="13" ry="8" fill="#D97706" opacity="0.35"/>

<path d="M320,224 Q340,244 360,224" stroke="#1C1C1C" stroke-width="4" fill="none" stroke-linecap="round"/>

<g fill="#1C1C1C">
<rect x="290" y="316" width="3" height="20"/><rect x="296" y="316" width="2" height="20"/>
<rect x="301" y="316" width="4" height="20"/><rect x="308" y="316" width="2" height="20"/>
<rect x="313" y="316" width="3" height="20"/><rect x="319" y="316" width="5" height="20"/>
<rect x="327" y="316" width="2" height="20"/><rect x="332" y="316" width="3" height="20"/>
<rect x="338" y="316" width="2" height="20"/><rect x="343" y="316" width="4" height="20"/>
<rect x="350" y="316" width="2" height="20"/><rect x="355" y="316" width="3" height="20"/>
<rect x="361" y="316" width="2" height="20"/><rect x="366" y="316" width="4" height="20"/>
<rect x="373" y="316" width="2" height="20"/><rect x="378" y="316" width="3" height="20"/>
<rect x="384" y="316" width="3" height="20"/>
</g>

</svg>
